<svg width="30" height="36" viewBox="0 0 30 36" fill="none" xmlns="http://www.w3.org/2000/svg">
<path d="M23.75 9.25C23.75 11.5706 22.8281 13.7962 21.1872 15.4372C19.5462 17.0781 17.3206 18 15 18C12.6794 18 10.4538 17.0781 8.81282 15.4372C7.17187 13.7962 6.25 11.5706 6.25 9.25C6.25 6.92936 7.17187 4.70376 8.81282 3.06282C10.4538 1.42187 12.6794 0.5 15 0.5C17.3206 0.5 19.5462 1.42187 21.1872 3.06282C22.8281 4.70376 23.75 6.92936 23.75 9.25ZM21.25 9.25C21.25 7.5924 20.5915 6.00269 19.4194 4.83058C18.2473 3.65848 16.6576 3 15 3C13.3424 3 11.7527 3.65848 10.5806 4.83058C9.40848 6.00269 8.75 7.5924 8.75 9.25C8.75 10.9076 9.40848 12.4973 10.5806 13.6694C11.7527 14.8415 13.3424 15.5 15 15.5C16.6576 15.5 18.2473 14.8415 19.4194 13.6694C20.5915 12.4973 21.25 10.9076 21.25 9.25ZM4.375 20.5C3.21468 20.5 2.10188 20.9609 1.28141 21.7814C0.460936 22.6019 0 23.7147 0 24.875V25.5C0 28.4912 1.90375 31.0212 4.60625 32.7412C7.32375 34.4712 11.0025 35.5 15 35.5C18.9975 35.5 22.675 34.4712 25.3938 32.7412C28.0963 31.0212 30 28.4912 30 25.5V24.875C30 23.7147 29.5391 22.6019 28.7186 21.7814C27.8981 20.9609 26.7853 20.5 25.625 20.5H4.375ZM2.5 24.875C2.5 24.3777 2.69754 23.9008 3.04917 23.5492C3.40081 23.1975 3.87772 23 4.375 23H25.625C26.1223 23 26.5992 23.1975 26.9508 23.5492C27.3025 23.9008 27.5 24.3777 27.5 24.875V25.5C27.5 27.3412 26.325 29.1863 24.0512 30.6325C21.7925 32.07 18.5963 33 15 33C11.4037 33 8.2075 32.07 5.94875 30.6325C3.67375 29.1875 2.5 27.34 2.5 25.5V24.875Z" fill="#2A7FFF"/>
</svg>
