<svg width="60" height="60" viewBox="0 0 60 60" fill="none" xmlns="http://www.w3.org/2000/svg">
<circle cx="30" cy="30" r="29" fill="#C2DBFF" stroke="#2A7FFF" stroke-width="2"/>
<path d="M14.4258 39V25.3359H14.3555L10.043 28.2656V25.125L14.4141 22.0898H17.9297V39H14.4258ZM28.4062 39.293C24.1172 39.293 21.5156 35.9297 21.5156 30.5508V30.5273C21.5156 25.1484 24.1172 21.7969 28.4062 21.7969C32.6953 21.7969 35.2969 25.1484 35.2969 30.5273V30.5508C35.2969 35.9297 32.6953 39.293 28.4062 39.293ZM28.4062 36.457C30.5156 36.457 31.7227 34.2656 31.7227 30.5508V30.5273C31.7227 26.8125 30.5156 24.6328 28.4062 24.6328C26.2969 24.6328 25.0898 26.8125 25.0898 30.5273V30.5508C25.0898 34.2656 26.2969 36.457 28.4062 36.457ZM37.9336 39L45.2109 24.9727V24.9023H36.6094V22.0898H48.7031V24.9375L41.6484 39H37.9336Z" fill="#2A7FFF"/>
</svg>
