<svg width="24" height="34" viewBox="0 0 24 34" fill="none" xmlns="http://www.w3.org/2000/svg">
<path d="M8.66667 12V20.3333C8.66667 21.2174 9.01786 22.0652 9.64298 22.6904C10.2681 23.3155 11.1159 23.6667 12 23.6667C12.8841 23.6667 13.7319 23.3155 14.357 22.6904C14.9821 22.0652 15.3333 21.2174 15.3333 20.3333V8.66667C15.3333 6.89856 14.631 5.20286 13.3807 3.95262C12.1305 2.70238 10.4348 2 8.66667 2C6.89856 2 5.20286 2.70238 3.95262 3.95262C2.70238 5.20286 2 6.89856 2 8.66667V22C2 24.6522 3.05357 27.1957 4.92893 29.0711C6.8043 30.9464 9.34783 32 12 32C14.6522 32 17.1957 30.9464 19.0711 29.0711C20.9464 27.1957 22 24.6522 22 22V5.33333" stroke="#2A7FFF" stroke-width="3" stroke-linecap="round" stroke-linejoin="round"/>
</svg>
