<svg width="33" height="34" viewBox="0 0 33 34" fill="none" xmlns="http://www.w3.org/2000/svg">
<path d="M30.1662 18.101C29.899 17.7968 29.7516 17.4058 29.7516 17.001C29.7516 16.5961 29.899 16.2051 30.1662 15.901L32.2995 13.501C32.5346 13.2387 32.6806 12.9088 32.7165 12.5585C32.7524 12.2081 32.6765 11.8554 32.4995 11.551L29.1662 5.7843C28.991 5.48017 28.7243 5.23909 28.4041 5.09544C28.0839 4.95179 27.7265 4.91289 27.3828 4.9843L24.2495 5.61763C23.8508 5.70001 23.4357 5.63361 23.0826 5.43096C22.7295 5.22832 22.4628 4.90344 22.3328 4.51763L21.3162 1.46763C21.2044 1.1366 20.9913 0.849073 20.7072 0.645701C20.4231 0.442329 20.0822 0.333396 19.7328 0.334298H13.0662C12.7027 0.315328 12.3431 0.415842 12.0421 0.620488C11.7412 0.825134 11.5155 1.12266 11.3995 1.46763L10.4662 4.51763C10.3362 4.90344 10.0695 5.22832 9.71636 5.43096C9.36326 5.63361 8.9482 5.70001 8.5495 5.61763L5.33284 4.9843C5.00709 4.93826 4.675 4.98967 4.37841 5.13203C4.08183 5.27439 3.834 5.50134 3.66617 5.7843L0.332835 11.551C0.151435 11.852 0.0698718 12.2028 0.0998059 12.553C0.12974 12.9032 0.269639 13.235 0.499501 13.501L2.61617 15.901C2.88337 16.2051 3.03073 16.5961 3.03073 17.001C3.03073 17.4058 2.88337 17.7968 2.61617 18.101L0.499501 20.501C0.269639 20.7669 0.12974 21.0987 0.0998059 21.4489C0.0698718 21.7992 0.151435 22.1499 0.332835 22.451L3.66617 28.2176C3.84133 28.5218 4.10803 28.7628 4.42826 28.9065C4.74848 29.0501 5.10588 29.089 5.4495 29.0176L8.58283 28.3843C8.98153 28.3019 9.39659 28.3683 9.74969 28.571C10.1028 28.7736 10.3695 29.0985 10.4995 29.4843L11.5162 32.5343C11.6321 32.8793 11.8578 33.1768 12.1588 33.3814C12.4597 33.5861 12.8194 33.6866 13.1828 33.6676H19.8495C20.1989 33.6685 20.5398 33.5596 20.8239 33.3562C21.108 33.1529 21.321 32.8653 21.4328 32.5343L22.4495 29.4843C22.5795 29.0985 22.8462 28.7736 23.1993 28.571C23.5524 28.3683 23.9675 28.3019 24.3662 28.3843L27.4995 29.0176C27.8431 29.089 28.2005 29.0501 28.5208 28.9065C28.841 28.7628 29.1077 28.5218 29.2828 28.2176L32.6162 22.451C32.7931 22.1465 32.8691 21.7938 32.8332 21.4435C32.7972 21.0931 32.6512 20.7632 32.4162 20.501L30.1662 18.101ZM27.6828 20.3343L29.0162 21.8343L26.8828 25.5343L24.9162 25.1343C23.7158 24.8889 22.4671 25.0928 21.4072 25.7073C20.3472 26.3218 19.5497 27.304 19.1662 28.4676L18.5328 30.3343H14.2662L13.6662 28.4343C13.2826 27.2707 12.4851 26.2884 11.4252 25.674C10.3652 25.0595 9.11654 24.8556 7.91617 25.101L5.9495 25.501L3.78284 21.8176L5.11617 20.3176C5.93609 19.4009 6.38939 18.2142 6.38939 16.9843C6.38939 15.7544 5.93609 14.5677 5.11617 13.651L3.78284 12.151L5.91617 8.4843L7.88284 8.8843C9.0832 9.12967 10.3319 8.92576 11.3918 8.31129C12.4518 7.69682 13.2493 6.71456 13.6328 5.55096L14.2662 3.66763H18.5328L19.1662 5.56763C19.5497 6.73123 20.3472 7.71349 21.4072 8.32796C22.4671 8.94243 23.7158 9.14633 24.9162 8.90096L26.8828 8.50096L29.0162 12.201L27.6828 13.701C26.8721 14.6156 26.4245 15.7954 26.4245 17.0176C26.4245 18.2398 26.8721 19.4197 27.6828 20.3343ZM16.3995 10.3343C15.081 10.3343 13.792 10.7253 12.6957 11.4578C11.5994 12.1904 10.7449 13.2316 10.2403 14.4497C9.73572 15.6679 9.6037 17.0084 9.86093 18.3016C10.1182 19.5948 10.7531 20.7827 11.6855 21.715C12.6178 22.6474 13.8057 23.2823 15.0989 23.5395C16.3921 23.7968 17.7325 23.6647 18.9507 23.1602C20.1689 22.6556 21.2101 21.8011 21.9426 20.7048C22.6752 19.6084 23.0662 18.3195 23.0662 17.001C23.0662 15.2329 22.3638 13.5372 21.1135 12.2869C19.8633 11.0367 18.1676 10.3343 16.3995 10.3343ZM16.3995 20.3343C15.7402 20.3343 15.0958 20.1388 14.5476 19.7725C13.9994 19.4063 13.5722 18.8857 13.3199 18.2766C13.0676 17.6675 13.0016 16.9973 13.1302 16.3507C13.2588 15.7041 13.5763 15.1101 14.0425 14.6439C14.5087 14.1778 15.1026 13.8603 15.7492 13.7317C16.3958 13.6031 17.066 13.6691 17.6751 13.9214C18.2842 14.1737 18.8048 14.6009 19.1711 15.1491C19.5373 15.6972 19.7328 16.3417 19.7328 17.001C19.7328 17.885 19.3816 18.7329 18.7565 19.358C18.1314 19.9831 17.2836 20.3343 16.3995 20.3343Z" fill="#2A7FFF"/>
</svg>
