<svg width="18" height="18" viewBox="0 0 18 18" fill="none" xmlns="http://www.w3.org/2000/svg">
<path d="M7.39347 10.6065L17 1M7.39347 10.6065L10.4501 16.7198C10.4884 16.8034 10.5499 16.8742 10.6273 16.9239C10.7047 16.9736 10.7948 17 10.8868 17C10.9787 17 11.0688 16.9736 11.1462 16.9239C11.2236 16.8742 11.2851 16.8034 11.3234 16.7198L17 1M7.39347 10.6065L1.28022 7.54991C1.19661 7.51159 1.12576 7.45007 1.07608 7.37267C1.02641 7.29526 1 7.20522 1 7.11325C1 7.02127 1.02641 6.93123 1.07608 6.85383C1.12576 6.77642 1.19661 6.7149 1.28022 6.67659L17 1" stroke="white" stroke-width="2" stroke-linecap="round" stroke-linejoin="round"/>
</svg>
